<?xml version="1.0" encoding="UTF-8"?>
<svg id="Layer_1" data-name="Layer 1" xmlns="http://www.w3.org/2000/svg" viewBox="0 0 434 117">
  <defs>
    <style>
      .cls-1 {
        fill: #fff;
      }
    </style>
  </defs>
  <g>
    <path class="cls-1" d="M32.85,39h9.67c6.44,0,10.02,2.73,10.02,7.8,0,4.68-2.73,7.02-6.9,7.8l7.29,13.26h-3.12l-7.06-12.95h-7.18v12.95h-2.73v-28.86ZM42.33,52.45c4.76,0,7.45-1.37,7.45-5.54s-2.65-5.38-7.49-5.38h-6.71v10.92h6.75Z"/>
    <path class="cls-1" d="M55.9,57.56c0-7.29,4.68-10.65,9.01-10.65,4.8,0,8.39,3.67,8.39,10.69v.51h-14.7c.04,5.07,2.93,7.92,6.47,7.92,3.08,0,4.84-1.33,6.4-3.74l1.68,1.33c-1.79,2.89-4.33,4.68-8.23,4.68-4.8,0-9.01-3.71-9.01-10.72ZM70.68,55.96c-.27-3.9-2.14-6.79-5.81-6.79-2.96,0-5.73,2.15-6.24,6.79h12.05Z"/>
    <path class="cls-1" d="M76.72,63.06c0-4.06,3.47-7.02,13.92-8.62v-1.05c0-2.85-1.48-4.21-4.17-4.21-3.24,0-5.54,1.37-7.68,3.24l-1.44-1.68c2.46-2.26,5.3-3.82,9.36-3.82,4.6,0,6.59,2.46,6.59,6.55v9.32c0,2.5.16,4.02.58,5.07h-2.77c-.27-.86-.47-1.75-.47-2.92-2.38,2.14-5.03,3.28-8.11,3.28-3.67,0-5.81-1.95-5.81-5.15ZM90.64,62.75v-6.4c-8.81,1.48-11.27,3.67-11.27,6.36,0,2.15,1.44,3.28,3.74,3.28,2.89,0,5.42-1.21,7.53-3.24Z"/>
    <path class="cls-1" d="M98.93,39h2.69v28.86h-2.69v-28.86Z"/>
    <path class="cls-1" d="M106.29,57.6c0-6.86,4.25-10.69,9.32-10.69s9.28,3.82,9.28,10.69-4.25,10.69-9.28,10.69-9.32-3.86-9.32-10.69ZM122.2,57.56c0-4.49-2.26-8.35-6.59-8.35s-6.63,3.51-6.63,8.35c0,4.56,2.22,8.42,6.63,8.42,4.13,0,6.59-3.47,6.59-8.42Z"/>
    <path class="cls-1" d="M127.16,70.59c0-2.11,1.4-3.74,3.78-4.68-1.25-.51-1.83-1.37-1.83-2.61s1.01-2.3,2.5-3.08c-1.95-1.25-3.12-3.35-3.12-5.89,0-4.37,3.47-7.41,8.11-7.41,2.38,0,4.41.78,5.85,2.11,1.21-.9,3.12-1.68,4.76-1.87v2.54c-1.21,0-2.57.2-3.74.7.78,1.05,1.21,2.34,1.21,3.94,0,4.49-3.51,7.29-8.07,7.29-1.21,0-2.3-.2-3.32-.58-.98.39-1.64.97-1.64,1.75,0,.86.74,1.33,3.04,1.56l4.48.35c4.76.39,7.25,2.03,7.25,5.23,0,3.74-3.9,5.81-9.52,5.81-6.67,0-9.75-1.99-9.75-5.15ZM143.93,70.16c0-1.95-1.56-2.92-5.62-3.24l-4.1-.31-1.05-.12c-2.3.74-3.43,2.18-3.43,3.74,0,2.15,2.26,3.39,7.45,3.39,4.21,0,6.75-1.4,6.75-3.47ZM142.13,54.36c0-3.28-2.03-5.3-5.54-5.3s-5.5,2.11-5.5,5.3,2.18,5.19,5.54,5.19,5.5-2.03,5.5-5.19Z"/>
    <path class="cls-1" d="M150.93,39.66h2.85v2.89h-2.85v-2.89ZM151.01,47.3h2.69v20.55h-2.69v-20.55Z"/>
    <path class="cls-1" d="M158.29,57.6c0-7.37,4.56-10.69,9.17-10.69s6.59,2.61,7.88,5.62l-2.3,1.01c-1.13-2.77-2.77-4.33-5.66-4.33-3.04,0-6.4,2.18-6.4,8.35,0,5.38,2.73,8.42,6.32,8.42,2.85,0,4.45-1.33,5.89-4.37l2.18.94c-1.64,3.47-4.02,5.73-8.19,5.73-4.72,0-8.89-3.86-8.89-10.69Z"/>
    <path class="cls-1" d="M178.28,64.58l1.72-1.56c1.56,1.79,3.55,2.96,6.4,2.96,3.51,0,5.34-1.29,5.34-3.59s-1.64-3.16-5.66-4.1c-4.72-1.17-7.14-2.42-7.14-6.01,0-2.92,2.54-5.38,6.98-5.38,3.51,0,5.77,1.17,7.61,2.96l-1.52,1.79c-1.56-1.56-3.51-2.54-6.01-2.54-3.2,0-4.45,1.48-4.45,3.04,0,1.99,1.4,2.81,4.99,3.67,5.15,1.25,7.8,2.5,7.8,6.51,0,3.74-3.35,5.89-8,5.89-3.67,0-6.51-1.56-8.07-3.67Z"/>
  </g>
  <rect class="cls-1" x="214.38" y="27.7" width=".9" height="59.42"/>
  <g>
    <polygon class="cls-1" points="389.74 36.71 385.64 46.62 386.6 46.62 394.38 36.71 389.74 36.71"/>
    <path class="cls-1" d="M245.01,60.72c-2.62,0-4.93-.65-6.63-1.53l-1.7,1.53h-.79l-.52-9.69.91-.09c2.75,6.29,5.98,8.29,8.99,8.29s4.98-2.05,4.98-4.8-1-3.88-5.11-5.59c-1.4-.57-3.01-1.13-4.36-1.79-3.06-1.53-4.67-3.93-4.67-7.11,0-5.2,4.5-8.34,8.9-8.34,2.18,0,3.67.61,5.11,1.44l1.7-1.48h.74l.74,8.55-.87.13c-2.4-4.8-4.97-7.16-7.81-7.16-2.49,0-4.15,1.66-4.15,4.23,0,2.05.88,3.62,3.97,4.98,1.53.7,3.32,1.31,4.93,2.09,3.53,1.7,5.19,3.93,5.19,7.16,0,5.76-4.84,9.16-9.56,9.16"/>
    <path class="cls-1" d="M268.1,40.9c-3.06,0-4.93,3.4-4.93,9.38s2.01,9.25,5.11,9.25,4.93-3.4,4.93-9.38-1.88-9.25-5.11-9.25M267.92,60.77c-6.63,0-9.91-4.76-9.91-10.56,0-5.37,3.75-10.52,10.47-10.52s9.82,4.71,9.82,10.48c0,5.41-3.67,10.61-10.39,10.61"/>
    <path class="cls-1" d="M287.78,60.59c-3.45,0-4.54-1.7-4.54-4.84v-13.05h-3.23v-.61l4.02-3.19,3.19-4.15h.65v5.67h6.64v2.27h-6.64v11.31c0,1.75.26,2.79,1.13,3.4.74.52,1.75.7,3.19.7.7,0,1.57-.04,2.4-.09l.04.61c-1.7,1.04-4.5,1.96-6.85,1.96"/>
    <path class="cls-1" d="M308.17,43c-1.66,0-2.92.31-4.54,1.09v14.45l2.44.92v.61h-9.86v-.61l2.75-.92v-26.36l-3.01-1.96v-.44l7.51-2.05.17.13v15.28l.18.09c2.57-2.44,4.93-3.54,7.29-3.54,3.93,0,5.59,2.97,5.59,6.07v12.79l2.75.92v.61h-9.87v-.61l2.45-.92v-11c0-2.84-1.14-4.54-3.84-4.54"/>
    <path class="cls-1" d="M334.58,47.23c-.17-4.1-1.35-6.33-3.93-6.33s-4.5,2.66-4.71,6.72l8.64-.39h0ZM325.89,48.72c0,5.54,1.57,9.17,6.5,9.17,2.18,0,3.97-.44,6.59-1.4l.26.52c-2.66,2.31-5.63,3.75-8.42,3.75-5.98,0-9.91-4.1-9.91-10.17s4.72-10.91,10.04-10.91c5.76,0,8.56,3.88,8.51,9.04h-13.57Z"/>
    <path class="cls-1" d="M351.82,42.74c-1.31,0-2.4.26-3.45.7v13.83c1.35,1.4,3.1,2.01,4.76,2.01,2.58,0,4.71-2.31,4.71-8.47,0-5.41-2.31-8.07-6.02-8.07M351.08,60.77c-2.27,0-5.28-.53-7.38-1.14v-27.45l-3.05-1.96v-.44l7.55-2.05.18.13v14.62l.18.09c1.53-1.53,3.62-2.88,6.33-2.88,4.15,0,7.9,3.8,7.9,10.04s-4.71,11.04-11.7,11.04"/>
    <path class="cls-1" d="M374.74,61.42c-2.18,5.37-4.23,7.73-6.94,7.73-2.31,0-3.4-1.35-3.4-2.75s1.22-2.49,2.62-2.49c1.49,0,2.36.78,3.41,2.09.83-.92,1.83-2.49,2.4-3.71l.74-1.65-7.72-18.64-2.66-1.05v-.57h10.65v.57l-2.79,1.05,4.71,12.79h.22l4.28-12.48-2.53-1.35v-.57h7.51v.57l-2.84,1.44-7.64,19.03h0Z"/>
    <path class="cls-1" d="M399.62,60.77c-2.4,0-4.45-.4-6.46-1.18l-.04-5.76.87-.09c2.36,4.15,4.15,5.72,6.46,5.72,2.05,0,3.32-1.31,3.32-3.32,0-2.27-2.31-3.14-4.8-4.15-2.75-1.18-5.67-2.49-5.67-6.11s3.05-6.2,7.51-6.2c1.7,0,4.1.35,5.28.79l.13,5.19-.83.22c-2.14-3.54-3.54-4.89-5.54-4.89-1.83,0-2.97,1.22-2.97,2.79,0,2.27,2.36,3.19,4.84,4.19,2.75,1.13,5.72,2.44,5.72,6.15,0,4.06-3.58,6.63-7.81,6.63"/>
    <path class="cls-1" d="M235.92,87.11h.98v-10.16h-.98v10.16h0ZM240.41,87.11h.92v-8.63h.03l5.78,8.63h.87v-10.16h-.92v8.37h-.03l-5.6-8.37h-1.04v10.16h0ZM253.47,87.11h.97v-9.25h3.28v-.9h-7.54v.9h3.28v9.25h0ZM259.92,87.11h6.35v-.89h-5.38v-4.04h3.8v-.88h-3.8v-3.45h5.09v-.9h-6.07v10.16h0ZM268.92,87.11h.96v-4.56h2.52l2.49,4.56h1.1l-2.57-4.67c1.47-.27,2.43-1.1,2.43-2.74,0-1.78-1.26-2.75-3.53-2.75h-3.4v10.16h0ZM269.88,81.69v-3.84h2.36c1.7,0,2.64.5,2.64,1.9,0,1.47-.95,1.95-2.62,1.95h-2.38ZM279.22,87.11h.92v-8.63h.03l5.78,8.63h.86v-10.16h-.92v8.37h-.03l-5.6-8.37h-1.04v10.16h0ZM289.44,87.11h.95l1.08-3.13h4.12l1.08,3.13h1.02l-3.6-10.2h-1.06l-3.6,10.2h0ZM291.77,83.12l1.74-5.05h.03l1.74,5.05h-3.51ZM301.6,87.11h.97v-9.25h3.28v-.9h-7.54v.9h3.28v9.25h0ZM308.19,87.11h.97v-10.16h-.97v10.16h0ZM316.37,87.3c2.49,0,4.28-2.08,4.28-5.27s-1.8-5.27-4.28-5.27-4.28,2.09-4.28,5.27,1.8,5.27,4.28,5.27h0ZM316.37,86.42c-1.92,0-3.31-1.63-3.31-4.39s1.39-4.38,3.31-4.38,3.31,1.62,3.31,4.38-1.38,4.39-3.31,4.39h0ZM323.77,87.11h.92v-8.63h.03l5.78,8.63h.87v-10.16h-.92v8.37h-.03l-5.6-8.37h-1.04v10.16h0ZM333.99,87.11h.95l1.08-3.13h4.12l1.08,3.13h1.02l-3.6-10.2h-1.06l-3.59,10.2h0ZM336.32,83.12l1.74-5.05h.03l1.74,5.05h-3.51ZM344.94,87.11h5.94v-.89h-4.97v-9.26h-.97v10.16h0ZM356.71,87.11h.96v-4.56h2.53l2.48,4.56h1.1l-2.56-4.67c1.47-.27,2.43-1.1,2.43-2.74,0-1.78-1.26-2.75-3.53-2.75h-3.4v10.16h0ZM357.67,81.69v-3.84h2.36c1.7,0,2.64.5,2.64,1.9,0,1.47-.95,1.95-2.62,1.95h-2.38ZM366.74,87.11h6.36v-.89h-5.38v-4.04h3.8v-.88h-3.8v-3.45h5.09v-.9h-6.07v10.16h0ZM374.34,87.11h.95l1.09-3.13h4.12l1.08,3.13h1.02l-3.6-10.2h-1.06l-3.6,10.2h0ZM376.68,83.12l1.74-5.05h.03l1.74,5.05h-3.51ZM385.05,87.11h5.94v-.89h-4.97v-9.26h-.97v10.16h0ZM393.71,87.11h.97v-9.25h3.28v-.9h-7.54v.9h3.28v9.25h0ZM402.48,87.11h.97v-4.48l3.42-5.68h-1.04l-2.84,4.85-2.86-4.85h-1.06l3.4,5.68v4.48h0Z"/>
  </g>
</svg>