<?xml version="1.0" encoding="UTF-8"?>
<svg id="Layer_1" data-name="Layer 1" xmlns="http://www.w3.org/2000/svg" viewBox="0 0 432.55 432.55">
  <defs>
    <style>
      .cls-1 {
        fill: #010101;
      }

      .cls-2 {
        fill: #fff;
      }
    </style>
  </defs>
  <rect class="cls-2" width="432.55" height="432.55" rx="72.01" ry="72.01"/>
  <g>
    <path class="cls-1" d="M124.49,160.49v135.26h26.64v-134.67c-10.02-1.57-23.05-1.09-26.64-.59Z"/>
    <path class="cls-1" d="M337.32,242.41c41.48-4.61,65.31-28.53,65.31-55.89,0-49.04-67.4-52.82-84.46-52.99.25,2.51.12,9.46-.39,14.38,38.27,2.18,58.21,14.73,58.21,40.56,0,27.75-21.38,47.44-71.82,47.44h-137.3v13.97h46.65v81.23c-20.37,12.78-44.95,19.17-73.76,19.17-55.21,0-96.83-29.88-96.83-103.01,0-61.59,31.2-103,90.67-103,75.47,0,80.09,60.48,80.45,62.6,70.1-1.96,88.5-35.06,88.5-69.05,0-50.08-40.18-69.54-94.88-69.54h-83.18v62.21c-101.14,4.21-108.21,89.81-108.21,117.11,0,75.57,46.03,116.65,123.16,116.65,40.94,0,74.52-10.18,100.73-30.54v-83.83h62.06c58.27,0,87.42,16.24,87.42,48.74,0,36.78-32.17,48.42-62.07,48.42h-66.06c-6.65,4.99-10.94,8.99-19.18,13.97h82c63.91,0,91.96-24,91.96-60.76,0-33.17-20.27-52.62-78.96-57.83ZM151.13,82.26h57.18c43.09,0,67.59,17.97,67.59,55.56s-25.26,48.26-39.66,51.99c-10.92-30.68-37.92-53.78-85.12-58.54v-49.02Z"/>
  </g>
</svg>